<?xml version="1.0" standalone="no"?>
<!DOCTYPE svg PUBLIC "-//W3C//DTD SVG 1.1//EN" "http://www.w3.org/Graphics/SVG/1.1/DTD/svg11.dtd" >
<!--
2013-9-30: Created.
-->
<svg>
<metadata>
Created by iconfont
</metadata>
<defs>

<font id="iconfont" horiz-adv-x="1024" >
  <font-face
    font-family="iconfont"
    font-weight="500"
    font-stretch="normal"
    units-per-em="1024"
    ascent="896"
    descent="-128"
  />
    <missing-glyph />
    
    <glyph glyph-name="chelun" unicode="&#58924;" d="M525.928732 848.22388c-246.610654 0-446.518636-199.907982-446.518636-446.51966 0-246.609631 199.906959-446.518636 446.518636-446.518636 246.609631 0 446.518636 199.906959 446.518636 446.518636C972.447369 648.315898 772.538363 848.22388 525.928732 848.22388zM525.928732 51.133843c-193.356776 0-350.537631 157.249417-350.537631 350.571401S332.571956 752.278691 525.928732 752.278691c193.321984 0 350.639962-157.25044 350.639962-350.573447C876.568694 208.38326 719.250716 51.133843 525.928732 51.133843zM525.928732 712.303234c-171.57468 0-310.597991-139.058103-310.597991-310.597991 0-171.538865 139.02331-310.595944 310.597991-310.595944 171.573657 0 310.594921 139.059126 310.594921 310.595944C836.524676 573.245132 697.502389 712.303234 525.928732 712.303234zM752.254388 305.341522c-0.278339 0.173962-0.521886 0.557702-0.732687 0.731664l-112.536053 74.339102c1.255597 6.933923 2.161223 14.009062 2.161223 21.293979 0 7.28594-0.803295 14.360056-2.161223 21.297049l112.536053 74.338079c0.243547 0.173962 0.488117 0.556679 0.732687 0.731664 12.616342-29.624714 19.655665-62.175061 19.655665-96.365768C771.944845 367.551376 764.87073 334.965214 752.254388 305.341522zM720.85219 551.253258c-0.105401-0.034792-0.314155-0.069585-0.417509-0.104377l-120.762411-61.72276c-10.245342 8.643867-21.886473 15.544021-34.71157 20.213367l-6.969739 135.258567c0 0.174985-0.141216 0.418532-0.141216 0.592494C624.069937 636.814959 681.994184 601.789235 720.85219 551.253258zM525.859147 346.919477c-30.286794 0-54.786791 24.537859-54.786791 54.785767 0 30.252001 24.499997 54.787814 54.786791 54.787814 30.216185 0 54.717206-24.535813 54.717206-54.787814C580.57533 371.455289 556.075333 346.919477 525.859147 346.919477zM496.059448 645.770935c-0.035816-0.278339-0.209778-0.661056-0.243547-0.906649l-8.051373-134.945435c-13.626345-4.809539-25.894763-11.989055-36.627199-21.154809l-120.936373 60.467163c-0.173962 0.069585-0.452301 0.069585-0.592494 0.174985C368.852254 601.47508 428.134429 637.511831 496.059448 645.770935zM298.696428 495.839181c0.13917-0.104377 0.278339-0.347924 0.416486-0.417509l113.512287-73.53683c-1.11438-6.55223-2.022053-13.242606-2.022053-20.180622 0-6.934946 0.871857-13.625322 2.056845-20.212344l-113.512287-73.503061c-0.138146-0.104377-0.313132-0.347924-0.451278-0.450255-12.093433 29.030174-18.821671 60.815087-18.821671 94.16566C279.910573 435.058886 286.636764 466.807984 298.696428 495.839181zM329.643254 253.970528c0.141216 0.068562 0.453325 0.106424 0.593518 0.173962l120.934327 60.468187c10.734482-9.234315 23.0029-16.380062 36.629245-21.12104l8.05035-134.981251c0-0.2415 0.209778-0.62524 0.209778-0.86981C428.169221 165.864888 368.886023 201.901639 329.643254 253.970528zM557.886585 157.952684c0 0.174985 0.140193 0.38374 0.140193 0.556679l6.970762 135.260613c12.790304 4.707209 24.466228 11.57257 34.712593 20.215414l120.761388-61.721737c0.105401-0.034792 0.277316-0.068562 0.38374-0.105401C681.994184 201.622276 624.069937 166.631344 557.886585 157.952684z"  horiz-adv-x="1024" />

    
    <glyph glyph-name="bofang" unicode="&#58908;" d="M698.88 431.36 698.88 431.36 451.84 581.12c-7.68 6.4-16.64 10.24-26.88 10.24-20.48 0-37.12-15.36-40.96-34.56 0 0 0-1.28 0-1.28 0-1.28 0-3.84 0-3.84 0-1.28 0-1.28 0-2.56 0-2.56 0-6.4 1.28-8.96l0-293.12c0-1.28 0-3.84 0-6.4 0-2.56 0-3.84 0-6.4 0-23.04 19.2-42.24 42.24-42.24 8.96 0 17.92 3.84 25.6 8.96l248.32 151.04 0 0c15.36 6.4 26.88 21.76 26.88 39.68C724.48 409.6 714.24 424.96 698.88 431.36zM513.28 883.2C238.08 883.2 15.36 660.48 15.36 385.28c0-275.2 222.72-497.92 497.92-497.92C788.48-112.64 1011.2 110.08 1011.2 385.28 1011.2 660.48 788.48 883.2 513.28 883.2zM513.28-30.72c-238.08 0-430.08 189.44-430.08 422.4 0 232.96 192 422.4 430.08 422.4 238.08 0 430.08-189.44 430.08-422.4C943.36 158.72 750.08-30.72 513.28-30.72z"  horiz-adv-x="1024" />

    
    <glyph glyph-name="wenjian" unicode="&#58886;" d="M597.333333 896h85.333334v-341.333333H597.333333zM597.333333 640h341.333334v-85.333333H597.333333zM682.666667 896H85.333333v-1024h853.333334V640H853.333333v-682.666667H170.666667V810.666667h512zM682.666667 896l256-256H810.666667L682.666667 768z"  horiz-adv-x="1024" />

    
    <glyph glyph-name="bofang1" unicode="&#58880;" d="M631.49 737.228h108.56v-661.568h-108.56v661.568zM283.949 737.228h108.56v-661.568h-108.56v661.568z"  horiz-adv-x="1024" />

    
    <glyph glyph-name="gaojing" unicode="&#58890;" d="M832-20.48c0-28.16-23.04-51.2-51.2-51.2H243.2c-28.16 0-51.2 23.04-51.2 51.2s23.04 51.2 51.2 51.2h535.04c30.72 0 53.76-23.04 53.76-51.2zM512 583.68c-125.44 0-227.84-104.96-227.84-232.96v-263.68H742.4V350.72c-2.56 128-104.96 232.96-230.4 232.96zM512 665.6c-15.36 0-28.16 12.8-28.16 28.16V811.52c0 15.36 12.8 28.16 28.16 28.16s28.16-12.8 28.16-28.16v-117.76c0-15.36-12.8-28.16-28.16-28.16z m-207.36-74.24c-7.68 0-15.36 2.56-20.48 10.24l-76.8 89.6c-7.68 12.8-7.68 28.16 5.12 38.4 12.8 10.24 28.16 7.68 38.4-2.56l76.8-89.6c10.24-12.8 7.68-28.16-2.56-38.4-7.68-5.12-12.8-7.68-20.48-7.68z m-110.08-192h-5.12l-115.2 20.48c-15.36 2.56-25.6 17.92-23.04 30.72 2.56 15.36 17.92 25.6 30.72 23.04l115.2-20.48c15.36-2.56 25.6-17.92 23.04-30.72 0-12.8-12.8-23.04-25.6-23.04z m524.8 192c-5.12 0-12.8 2.56-17.92 7.68-12.8 10.24-12.8 28.16-2.56 38.4l76.8 89.6c10.24 12.8 28.16 12.8 38.4 2.56 12.8-10.24 12.8-28.16 2.56-38.4l-76.8-89.6c-5.12-7.68-12.8-10.24-20.48-10.24z m110.08-192c-12.8 0-25.6 10.24-28.16 23.04-2.56 15.36 7.68 28.16 23.04 30.72l115.2 20.48c15.36 2.56 28.16-7.68 30.72-23.04 2.56-15.36-7.68-28.16-23.04-30.72L832 399.36c0 2.56-2.56 0-2.56 0z"  horiz-adv-x="1024" />

    
    <glyph glyph-name="shebeiguanli" unicode="&#59044;" d="M574.213565 605.670032c-78.329493 0-141.698539-63.490676-141.698539-141.698539 0-18.609336 15.082076-33.691412 33.691412-33.691412 18.609336 0 33.691412 15.082076 33.691412 33.691412 0 40.989191 33.204894 74.194085 74.194085 74.194085s74.194085-33.204894 74.194085-74.194085c0-18.609336 15.082076-33.691412 33.691412-33.691412 18.609336 0 33.691412 15.082076 33.691412 33.691412 0.243259 78.207863-63.247417 141.698539-141.455279 141.698539z m0 131.11676c-137.92802 0-249.705666-111.777646-249.705666-249.705666 0-18.609336 15.082076-33.691412 33.813042-33.691412 18.609336 0 33.691412 15.082076 33.691412 33.691412 0 100.709348 81.491864 182.201212 182.201212 182.201212s182.201212-81.491864 182.201211-182.201212c0-18.609336 15.082076-33.691412 33.691412-33.691412 18.609336 0 33.691412 15.082076 33.691413 33.691412 0.12163 137.92802-111.656016 249.705666-249.584036 249.705666zM790.227818 439.767193c-26.028745 0-47.192303 21.163559-47.192303 47.192303 0 93.04668-75.653641 168.700321-168.700321 168.700321S405.391614 580.127806 405.391614 487.081126c0-26.028745-21.163559-47.192303-47.192303-47.192303s-47.192303 21.163559-47.192303 47.192303c0 145.104169 118.102387 263.206557 263.206557 263.206557s263.206557-118.102387 263.206556-263.206557c0-26.028745-21.163559-47.313933-47.192303-47.313933zM574.213565 682.783228c107.885497 0 195.702102-87.816605 195.702102-195.702102 0-11.189928 9.122224-20.190521 20.190521-20.190521s20.190521 9.122224 20.190522 20.190521c0.12163 130.265352-105.817793 236.204775-236.083145 236.204775s-236.204775-105.939423-236.204775-236.204775c0-11.189928 9.122224-20.190521 20.190521-20.190521 11.189928 0 20.190521 9.122224 20.190522 20.190521 0 107.885497 87.816605 195.702102 195.823732 195.702102z m108.007126-266.125668c-26.028745 0-47.192303 21.163559-47.192303 47.192303 0 33.448153-27.245041 60.693194-60.693194 60.693194S513.642 497.298016 513.642 463.849863c0-26.028745-21.163559-47.192303-47.192303-47.192303s-47.192303 21.163559-47.192303 47.192303c0 85.627272 69.693788 155.19943 155.19943 155.19943S729.656254 549.355505 729.656254 463.849863c-0.243259-25.907115-21.406818-47.192303-47.435563-47.192303z m-108.007126 135.008909c48.4086 0 87.694976-39.408006 87.694975-87.694976 0-11.189928 9.122224-20.190521 20.190522-20.190521 11.189928 0 20.190521 9.122224 20.190521 20.190521 0 70.666825-57.530823 128.197648-128.197648 128.197648s-128.197648-57.530823-128.197648-128.197648c0-11.189928 9.122224-20.190521 20.190521-20.190521 11.189928 0 20.190521 9.122224 20.190522 20.190521 0.12163 48.28697 39.529635 87.694976 87.938235 87.694976zM596.228531 310.596508h-46.584155c-0.973037 0-1.702815 0.729778-1.702815 1.702815v137.441501c0 13.74415 11.189928 24.934078 24.934077 24.934078s24.934078-11.189928 24.934078-24.934078V312.177693c0.12163-0.851408-0.608148-1.581185-1.581185-1.581185zM596.228531 297.095617h-60.085046l-1.702815 15.203706v137.441501c0 21.163559 17.27141 38.434969 38.434968 38.434969 21.285188 0 38.434969-17.27141 38.434969-38.434969v-151.064022l-15.082076-1.581185z m-34.786079 27.001782h22.988003V449.740824c0 6.324742-5.108445 11.433187-11.433187 11.433187-6.203112 0-11.433187-5.230075-11.433187-11.433187v-125.643425zM725.399216 57.728471h-492.600071c-20.920299 0-37.82682 16.906521-37.82682 37.826821V269.728946c0 22.744744 18.487706 41.23245 41.23245 41.232451h493.208219c23.231263 0 42.327117-18.974225 42.327118-42.327117v-164.686543c0-25.420596-20.79867-46.219266-46.340896-46.219266zM792.538781 57.728471h-41.35408V310.961397H790.957596c18.122817 0 32.840005-14.838817 32.840005-32.840005v-189.134101c0-17.27141-13.987409-31.258819-31.25882-31.25882zM795.701152 42.524765H227.44744c-29.799264 0-54.003563 24.2043-54.003563 54.003564V271.91828c0 29.799264 24.2043 54.003563 54.003563 54.003563h568.253712c29.799264 0 54.003563-24.2043 54.003564-54.003563v-175.511581c0-29.677634-24.2043-53.881934-54.003564-53.881934zM227.44744 298.920062c-14.838817 0-27.001782-12.162965-27.001781-27.001782v-175.511581c0-14.838817 12.162965-27.001782 27.001781-27.001782h568.253712c14.838817 0 27.001782 12.162965 27.001782 27.001782V271.91828c0 14.838817-12.162965 27.001782-27.001782 27.001782H227.44744zM297.384487 182.520489m-27.001781 0a27.001782 27.001782 0 1 1 54.003563 0 27.001782 27.001782 0 1 1-54.003563 0ZM297.384487 147.491151c-19.339114 0-35.150968 15.690224-35.150968 35.150968 0 19.339114 15.690224 35.150968 35.150968 35.150968s35.150968-15.690224 35.150969-35.150968c0-19.460744-15.690224-35.150968-35.150969-35.150968z m0 54.003563c-10.46015 0-18.852595-8.514075-18.852595-18.852595 0-10.46015 8.514075-18.852595 18.852595-18.852595s18.852595 8.514075 18.852596 18.852595c0.12163 10.33852-8.392446 18.852595-18.852596 18.852595zM376.687017 182.520489m-27.001781 0a27.001782 27.001782 0 1 1 54.003563 0 27.001782 27.001782 0 1 1-54.003563 0ZM376.687017 147.491151c-19.339114 0-35.150968 15.690224-35.150968 35.150968 0 19.339114 15.690224 35.150968 35.150968 35.150968s35.150968-15.690224 35.150969-35.150968c-0.12163-19.460744-15.811854-35.150968-35.150969-35.150968z m0 54.003563c-10.46015 0-18.852595-8.514075-18.852595-18.852595 0-10.46015 8.514075-18.852595 18.852595-18.852595s18.852595 8.514075 18.852596 18.852595-8.514075 18.852595-18.852596 18.852595z"  horiz-adv-x="1024" />

    
    <glyph glyph-name="zhongxinbofang" unicode="&#59003;" d="M341.312415 182.386704V613.401253c0 19.45408 18.424896 33.963058 36.774486 22.503977 14.621937-9.162244 295.80242-199.900082 320.753846-215.626509 16.441835-10.379693 16.178264-35.067548 0-45.422138-18.035815-11.659897-300.295684-202.071408-321.569662-214.936204-15.500509-9.388162-35.946119 1.054286-35.946119 22.491427z m731.824825 422.856386a1381.076495 1381.076495 0 0 1-51.760403-166.928555c-12.488264-51.998872-40.439384-65.189994-82.573155-42.547955 0 0-112.833662 63.457953-158.029882 83.991421q-79.146727 35.971221 23.319793 75.117849c20.169488 7.706326 39.53571 17.345508 59.529484 25.541324C794.592472 719.193793 656.418302 815.008273 494.94944 815.008273c-230.298651 0-417.032714-192.984471-417.032713-431.0271s186.746614-431.064753 417.045264-431.064752c121.744886 0 230.323753 54.835403 306.558643 140.797332 0 0 20.909998 15.927243 33.699487 15.927244 19.203059 0 34.414895-14.508978 37.088261-33.222548 0 0 0.564796-18.977141-5.974285-26.796426a37.653057 37.653057 0 0 0-6.513979-7.681224c-90.304583-103.533357-219.354162-169.940799-364.858127-169.940799C221.575692-128 0 101.219263 0 383.968622c0 57.307953 11.182958 111.415397 27.963671 162.862025a40.527241 40.527241 0 0 0 3.652346 12.601223C101.161214 755.403483 281.381298 896 494.974543 896c193.976001 0 359.913025-116.410703 440.829445-284.544155 23.15663 10.241632 46.991016 19.027345 69.909177 29.984384q99.153051 47.354995 67.411524-36.121833z"  horiz-adv-x="1080" />

    
    <glyph glyph-name="zaixian" unicode="&#58907;" d="M512.251 896C230.011 896 0 665.99 0 383.749c0-246.082 175.27-457.008 416.33-502.71 9.542-2.008 29.63-5.524 53.234-7.532 11.048-1.005 23.101-1.507 34.652-1.507h5.022c39.674 1.004 90.397 9.542 104.961 12.053 238.046 45.199 410.303 255.623 410.303 499.696C1024.502 666.49 794.492 896 512.252 896z m398.752-280.734H857.77c-35.656 74.83-81.357 131.076-120.53 170.248 71.314-40.176 131.579-98.432 173.764-170.248z m-87.886-286.258c6.027-6.026 12.555-9.542 20.59-9.542 6.53 0 11.05 1.507 14.062 4.52 3.014 3.516 7.534 8.036 9.04 16.07l36.16-6.528c-4.52-12.555-12.556-23.604-22.098-29.63s-22.097-11.049-37.666-11.049c-23.603 0-40.678 8.036-51.727 23.604-9.542 12.555-14.062 28.124-14.062 47.208 0 22.097 6.53 40.678 17.075 53.234 11.049 12.555 26.617 19.083 43.692 19.083 20.59 0 36.16-6.528 47.208-20.59 11.048-12.555 17.075-33.146 17.075-61.27h-88.89c0-11.048 3.013-19.083 9.541-25.11zM581.053 839.753l8.036-1.005c20.59-12.053 139.111-85.877 211.429-223.482H647.345c-25.11 100.944-59.763 179.79-82.864 225.993l16.572-1.506zM714.641 393.29c-1.507 4.52-4.52 8.035-8.036 9.542-3.013 3.013-8.035 3.013-12.555 3.013-6.529 0-12.555-1.507-17.075-4.52s-8.035-8.035-9.542-14.062c-1.507-6.528-3.013-15.568-3.013-31.639v-61.269h-36.16V429.45h33.147v-20.59c12.555 15.568 26.617 23.603 43.692 23.603 8.035 0 15.568-1.507 22.097-4.52 6.528-3.013 11.048-6.026 14.061-11.048 3.014-4.52 6.53-9.542 6.53-15.569 1.506-6.529 1.506-14.062 1.506-23.604l3.013-81.86h-36.159v69.305c0 14.062 0 23.604-1.506 28.124zM512.753 830.21c34.653-68.3 62.274-140.618 82.362-214.945h-163.72c26.618 102.45 62.274 178.786 81.358 214.945z m43.19-380.673v33.146h36.159v-33.146h-36.159z m36.159-18.582v-135.093h-36.159V430.956h36.159z m-71.816 53.234v-186.82h-36.158v-1.507V484.19h36.158z m-109.983-90.9c-1.507 4.52-4.52 8.036-8.035 9.543-3.013 3.013-8.036 3.013-12.555 3.013-6.53 0-12.556-1.507-17.075-4.52-4.52-3.013-8.036-8.035-9.542-14.062-1.507-6.026-3.014-15.568-3.014-31.639v-61.269h-36.159V429.45h33.146v-20.59c12.555 15.568 26.617 23.603 44.194 23.603 8.036 0 15.569-1.507 22.097-4.52 6.53-3.013 11.049-6.026 14.062-11.048 3.014-4.52 6.027-9.542 6.027-15.569 1.506-6.529 1.506-14.062 1.506-23.604l3.014-81.86h-36.16v69.305c0 14.062 0 23.604-1.506 28.124z m25.11 445.458c8.036 0.503 16.071 1.507 24.609 2.511-20.59-40.678-56.75-120.53-82.865-225.993H223.984c67.798 129.067 176.777 202.39 211.43 223.482z m-146.142-52.23c-51.727-51.726-92.406-108.978-121.032-171.252H113.5c42.687 72.318 103.454 131.579 175.772 171.253zM121.534 436.984c4.52 9.542 11.049 17.075 17.075 25.11 8.035 8.035 15.569 12.555 23.604 17.075 11.048 4.52 25.11 8.036 40.679 8.036 28.123 0 50.22-8.036 65.789-25.11 17.075-17.076 25.11-40.68 25.11-70.812 0-29.63-8.035-53.234-25.11-70.811-15.569-17.075-37.666-25.11-65.79-25.11s-50.22 8.035-65.788 25.11c-15.569 17.577-23.604 38.168-23.604 67.798 0 19.084 3.013 34.652 8.035 48.714z m-7.533-284.25h51.727C199.376 79.412 243.57 24.17 281.236-14.5 213.438 25.173 155.182 82.927 114 152.734z m316.893-221.975c-34.653 21.093-141.623 94.415-208.919 221.976H370.63c19.586-80.353 48.212-154.178 88.388-225.993-9.04 1.004-18.581 2.008-28.123 4.017z m-6.53 221.473h175.271c-18.582-72.82-48.212-144.133-87.384-212.935-40.176 71.815-69.807 143.129-87.886 212.935zM593.61-69.242c-10.045-2.009-20.089-3.013-29.63-4.017 39.172 70.309 68.802 146.644 88.388 226.495H801.02v-0.502C730.21 15.129 613.195-57.691 593.61-69.242z m146.644 52.732c51.225 52.23 90.397 107.974 119.023 168.741h51.727c-42.185-70.81-101.445-129.067-170.75-168.741zM204.398 454.56c-15.568 0-28.123-4.52-37.665-15.568-9.542-11.049-14.062-27.12-14.062-48.714 0-22.098 4.52-37.666 14.062-48.714 9.542-11.049 22.097-15.569 37.665-15.569 15.569 0 26.617 4.52 37.666 15.569 9.542 11.048 14.062 26.616 14.062 48.714s-4.52 37.665-14.062 48.714-22.097 15.568-37.666 15.568z m657.39-55.243c-5.023 4.52-11.05 8.036-19.085 8.036s-14.062-3.014-19.084-8.036c-4.52-6.528-8.035-14.061-8.035-23.603h54.238c0 11.048-3.013 19.083-8.035 23.603z"  horiz-adv-x="1024" />

    
    <glyph glyph-name="cuowu-tianchong" unicode="&#58899;" d="M512 896C230.4 896 0 665.6 0 384s230.4-512 512-512 512 230.4 512 512S793.6 896 512 896z m151.466667-633.6c8.533333-8.533333 8.533333-21.333333 0-29.866667-8.533333-8.533333-21.333333-8.533333-29.866667 0L512 354.133333l-121.6-121.6c-8.533333-8.533333-21.333333-8.533333-29.866667 0-8.533333 8.533333-8.533333 21.333333 0 29.866667l121.6 121.6-121.6 121.6c-8.533333 8.533333-8.533333 21.333333 0 29.866667 8.533333 8.533333 21.333333 8.533333 29.866667 0l121.6-121.6 121.6 121.6c8.533333 8.533333 21.333333 8.533333 29.866667 0 8.533333-8.533333 8.533333-21.333333 0-29.866667L541.866667 384l121.6-121.6z"  horiz-adv-x="1024" />

    
    <glyph glyph-name="caidan" unicode="&#58883;" d="M955.73300001 844.8l-164.35200001 1e-8 0-921.60000002L955.73300001-76.79999999999995 955.73300001 844.8z m-525.89200001 1e-8l0-921.60000002L594.176-76.79999999999995 594.176 844.8l-164.335 1e-8z m-361.57400001-1e-8l0-921.6L232.619-76.80000000999996 232.619 844.80000001l-164.35200001-1e-8z"  horiz-adv-x="1024" />

    
    <glyph glyph-name="backward" unicode="&#58900;" d="M234.2310630604623 648.2751205712556L234.23106306046253 138.5653022825718 512.5728506948799 393.42021142691374l-278.3417876344175 254.8549091443419zM512.509200617671 649.9936726558954L512.509200617671 140.28385436721146 790.8509882520884 395.1387635115534l-278.3417876344175 254.8549091443419z"  horiz-adv-x="1024" />

    
    <glyph glyph-name="cheliangzongshu" unicode="&#59173;" d="M512-128C229.23-128 0 101.23 0 384S229.23 896 512 896s512-229.23 512-512-229.23-512-512-512z m262.983 600.014h-51.975c-2.436 0-4.78-0.706-6.767-1.765l-23.459 68.966c-7.49 39.245-35.733 58.118-70.472 58.118H402.23c-39.884 0-64.064-25.399-70.47-58.118l-23.463-69.23c-2.164 1.236-4.6 2.03-7.217 2.03h-51.975c-7.94 0-14.438-6.349-14.438-14.113v-12.256c0-7.76 6.498-14.112 14.438-14.112l19.67-3.264c-6.135-11.993-9.746-25.575-9.746-41.36l-7.218-81.401c0-2.382 0.18-4.763 0.45-7.14-0.27-1.503-0.45-3.002-0.45-4.587v-97.893c0-13.934 11.549-25.222 25.806-25.222h39.435c14.254 0 25.806 11.288 25.806 25.222v31.484h338.914v-31.484c0-13.934 11.552-25.222 25.807-25.222h39.434c14.258 0 25.806 11.288 25.806 25.222v97.893c0 1.585-0.18 3.084-0.45 4.586 0.27 2.378 0.45 4.849 0.45 7.14l-7.31 81.403c0 15.874-3.52 29.456-9.834 41.36l19.22 3.177c8.032 0 14.437 6.348 14.437 14.108v12.346c0.09 7.764-6.405 14.112-14.35 14.112z m-425.81 14.465l17.236 44.713 0.269 1.055c1.714 9.087 5.504 10.672 11.187 17.64h269.349c5.684-7.145 9.204-8.997 10.826-17.55l17.506-45.858 6.407-24.96c-1.442-18.255-23.913-32.629-42.498-32.629h-254.1c-18.677 0-41.144 14.374-42.589 32.63l6.407 24.959z m12.09-212.807c-21.564 0-39.07 17.109-39.07 38.188 0 21.076 17.506 38.185 39.07 38.185 21.568 0 39.073-17.109 39.073-38.185 0-21.08-17.505-38.188-39.073-38.188z m218.366 28.223c0-6.261-5.234-11.377-11.64-11.377H458.264c-6.407 0-11.638 5.116-11.638 11.377v31.924c0 6.261 5.231 11.377 11.638 11.377h109.725c6.406 0 11.64-5.116 11.64-11.377v-31.924z m83.738-28.223c-21.568 0-39.162 17.109-39.162 38.188 0 21.076 17.506 38.185 39.162 38.185 21.564 0 39.07-17.109 39.07-38.185 0-21.08-17.506-38.188-39.07-38.188z"  horiz-adv-x="1024" />

    
    <glyph glyph-name="jiashiyuan" unicode="&#59112;" d="M291.564849-127.960617a148.86812 148.86812 0 0 0-0.118149 6.301296c0 97.748856 95.937233 176.987654 214.244067 176.987655 118.306834 0 214.244068-79.238799 214.244068-176.987655 0-2.087304-0.039383-4.213992-0.11815-6.301296H291.564849z m373.509326 533.837929L468.276821 115.820776c-139.33741-17.446714-246.144379-117.125341-246.144379-237.480097 0-2.087304 0-4.213992 0.078767-6.301296H90.395971C52.588194-68.964732 35.850376-20.523518 40.024985 17.402408c6.301296 56.90858 157.414253 322.390062 220.387831 353.975308C323.347011 402.962963 368.637577 415.604938 511.992063 415.604938c69.865621 0 116.416446-2.993116 153.082112-9.727626z m63.682474-18.510057c11.499865-4.647206 22.842198-9.963924 34.814661-15.989539 62.973578-31.585247 214.086535-297.066728 220.387831-353.975308 4.213992-37.925926-12.602592-86.36714-50.410368-145.363025h-131.775855a202.822968 202.822968 0 0 1 0.078766 6.301296c0 123.347871-112.163071 224.956271-256.580901 238.66159l183.485866 270.404369zM511.992063 453.570247c-121.81193 0-220.545364 99.048498-220.545363 221.25426C291.4467 796.951502 390.180133 896 511.992063 896c121.81193 0 220.545364-99.048498 220.545364-221.214876 0-122.205761-98.733433-221.254259-220.545364-221.25426z"  horiz-adv-x="1024" />

    
    <glyph glyph-name="zaixiansvgpng" unicode="&#58881;" d="M952 577.506H73.6c-27.2-59.2-41.6-124.8-41.6-193.6s14.4-134.4 41.6-193.6h876.8c27.2 59.2 41.6 124.8 41.6 193.6s-14.4 134.4-40 193.6zM1024 383.906c0 283.2-228.8 512-512 512s-512-228.8-512-512c0-249.6 179.2-457.6 416-502.4l0.032-0.032c13.376-2.56 32.48-5.776 53.024-7.712 11.36-0.912 22.8-1.456 34.272-1.664 1.536 0 3.072-0.016 4.592 0.016 38.784 0.784 89.44 9.248 105.36 12.064 234.16 45.328 410.72 252 410.72 499.728z m-88 225.6h-78.4c-48 104-118.4 177.6-174.4 222.4 108.8-41.6 198.4-121.6 252.8-222.4z m-342.4 248c14.4-8 152-89.6 228.8-248H641.6c-28.8 120-72 211.2-94.4 252.8 16-1.6 32-3.2 46.4-4.8z m16-248H416c32 129.6 80 222.4 96 251.2 16-28.8 64-121.6 97.6-251.2z m-132.8 252.8c-22.4-41.6-65.6-132.8-94.4-252.8H201.6c76.8 158.4 216 240 228.8 248 14.4 1.6 30.4 3.2 46.4 4.8z m-136-30.4c-54.4-44.8-126.4-118.4-172.8-222.4H88c54.4 100.8 144 180.8 252.8 222.4z m-308.8-448c0 68.8 14.4 134.4 41.6 193.6H952c25.6-59.2 40-124.8 40-193.6s-14.4-134.4-41.6-193.6H73.6c-27.2 59.2-41.6 124.8-41.6 193.6z m56-225.6h76.8c46.4-102.4 115.2-176 171.2-220.8-105.6 41.6-193.6 121.6-248 220.8z m337.6-246.4c-28.8 17.6-153.6 97.6-225.6 246.4h176c19.2-83.2 51.2-168 100.8-252.8-16 1.6-33.6 3.2-51.2 6.4z m-16 246.4h204.8c-19.2-81.6-52.8-164.8-102.4-248-49.6 84.8-83.2 168-102.4 248z m136-252.8c49.6 84.8 81.6 171.2 100.8 252.8h176c-70.4-148.8-196.8-230.4-224-246.4-17.6-3.2-35.2-4.8-52.8-6.4z m142.4 32c54.4 46.4 124.8 118.4 171.2 220.8H936c-54.4-99.2-142.4-179.2-248-220.8z"  horiz-adv-x="1024" />

    
    <glyph glyph-name="cheliangguanli" unicode="&#58884;" d="M853.333333 611.555556h-170.666666V782.222222H0v-682.666666h113.777778a113.777778 113.777778 0 0 1 227.555555 0h341.333334a113.777778 113.777778 0 0 1 227.555555 0h113.777778v170.666666zM227.555556 42.666667a56.888889 56.888889 0 1 0 56.888888 56.888889 56.888889 56.888889 0 0 0-56.888888-56.888889z m568.888888 0a56.888889 56.888889 0 1 0 56.888889 56.888889 56.888889 56.888889 0 0 0-56.888889-56.888889z m-113.777777 227.555555V497.777778h113.777777l113.777778-227.555556z"  horiz-adv-x="1024" />

    
    <glyph glyph-name="tingchedian-fill" unicode="&#59000;" d="M588.4 580.4H411.6v-182.9h176.8c50.4 0 91.4 41 91.4 91.4s-41 91.5-91.4 91.5zM512 829C266.6 829 67 629.4 67 384s199.6-445 445-445 445 199.6 445 445S757.4 829 512 829z m76.4-492.4H411.6v-201.1c0-16.8-13.6-30.5-30.5-30.5-16.8 0-30.5 13.6-30.5 30.5V610.8c0 16.8 13.6 30.5 30.5 30.5h207.2c84 0 152.4-68.4 152.4-152.4s-68.3-152.3-152.3-152.3z"  horiz-adv-x="1024" />

    
    <glyph glyph-name="dakaidewenjianjia" unicode="&#58882;" d="M103.04182358-88.37907700000005V817.230769h393.84615401a157.53846201 157.53846201 0 0 1 157.538461-157.538461h393.846154v-236.30769299h78.76923099V659.692308a78.769231 78.769231 0 0 1-78.76923099 78.76923001H654.4264386a78.769231 78.769231 0 0 0-78.76923102 78.76923099 78.769231 78.769231 0 0 1-78.76922999 78.769231H103.04182358a78.769231 78.769231 0 0 1-78.76923099-78.769231v-945.230769l78.76923099 39.620923z m0 0V817.230769h393.84615401a157.53846201 157.53846201 0 0 1 157.538461-157.538461h393.846154v-232.684308h78.76923099V659.692308a78.769231 78.769231 0 0 1-78.76923099 78.76923001H654.4264386a78.769231 78.769231 0 0 0-78.76923102 78.76923099 78.769231 78.769231 0 0 1-78.76922999 78.769231H103.04182358a78.769231 78.769231 0 0 1-78.76923099-78.769231v-945.230769l78.76923099 39.620923zM128.72059259-49.23076900000001h938.92923099l112.48246101 393.84615399H241.20305458l-112.48246199-393.84615399z m112.48246199 472.61538399h938.92923001a78.769231 78.769231 0 0 0 75.776-100.430769L1127.04182358-128H24.27259259l141.23323099 494.276923A78.769231 78.769231 0 0 0 241.20305458 423.38461499z"  horiz-adv-x="1260" />

    
    <glyph glyph-name="wenjianjia-guanbi" unicode="&#58946;" d="M929.456128 709.453824h-416.89088c-94.543872 0-94.543872 94.537728-185.667584 94.537728H94.533632c-52.396032 0-94.537728-43.280384-94.537728-94.537728v-650.395648c0-52.39808 42.141696-94.539776 94.537728-94.539776h834.922496c52.396032 0 94.537728 43.282432 94.537728 94.539776V619.466752c-3.416064 52.39808-42.141696 89.987072-94.537728 89.987072z m47.839232-644.698112c0-23.92064-19.367936-47.839232-47.839232-47.839232H94.533632c-23.92064 0-47.839232 19.36384-47.839232 47.839232V524.929024h924.903424v-460.173312h5.697536z m0 506.871808H46.6944V709.453824c0 23.92064 19.36384 47.839232 47.839232 47.839232h232.36608c71.759872 0 71.759872-94.543872 185.667584-94.543872h418.025472c23.92064 0 47.839232-19.361792 47.839232-47.839232v-43.282432h-1.13664z m0 0"  horiz-adv-x="1025" />

    
    <glyph glyph-name="cheduiguanli" unicode="&#58885;" d="M1024.90793 413.136033l77.282995-96.603993H929.076936v96.603993z m-13.601999 149.15599H862.459941v-474.362968a161.829989 161.829989 0 0 0 311.604979-17.311999h21.948998V347.910037z m4.328-609.144959a81.609994 81.609994 0 1 1-81.919995 81.610995 81.764994 81.764994 0 0 1 81.919995-81.609995zM457.495969 116.833053a81.609994 81.609994 0 1 1 81.301994-81.765994 81.919994 81.919994 0 0 1-81.301994 81.765994zM1015.633931-127.99993a161.211989 161.211989 0 0 0-153.32999 111.287992H610.826958a161.366989 161.366989 0 0 0-309.131979 8.037H187.005987a77.282995 77.282995 0 0 0-77.282995 77.282995V112.350054a44.514997 44.514997 0 0 0 88.874994 0v-18.083999a15.456999 15.456999 0 0 1 15.456999-15.456999h87.638994a161.829989 161.829989 0 0 0 314.231979-8.192h159.511989V793.214007a15.456999 15.456999 0 0 1-15.455999 15.455999H237.239984a15.456999 15.456999 0 0 1-15.456999-15.455999v-73.109995h223.965985a44.050997 44.050997 0 1 0 0-87.947994H46.659997a44.050997 44.050997 0 1 0 0 87.947994h87.639994V818.717005A77.282995 77.282995 0 0 0 211.581986 896h573.43996a77.282995 77.282995 0 0 0 77.282995-77.282995v-169.094988h153.48399a77.282995 77.282995 0 0 0 58.579996-26.894998l190.115987-221.337985a77.282995 77.282995 0 0 0 18.702998-49.615997v-291.20198a77.282995 77.282995 0 0 0-77.282994-77.282995h-36.940998A161.057989 161.057989 0 0 0 1015.633931-127.99993zM445.74997 520.868026a44.050997 44.050997 0 1 0 0-87.947994H170.310988a44.050997 44.050997 0 1 0 0 87.947994zM54.696996 335.544038h502.029966a44.978997 44.978997 0 1 0 0-87.948994H54.697996a44.978997 44.978997 0 1 0 0 87.948994z"  horiz-adv-x="1283" />

    
    <glyph glyph-name="backward-copy" unicode="&#59174;" d="M789.76893694 119.72487942999999L789.76893694 629.43469772 511.42714931 374.57978857l278.34178763-254.85490914zM511.49079938 118.00632733999998L511.49079938 627.71614563 233.14901175 372.86123649l278.34178763-254.85490915z"  horiz-adv-x="1024" />

    


  </font>
</defs>
</svg>
